<svg xmlns="http://www.w3.org/2000/svg" width="302.86" height="302.861" viewBox="0 0 302.86 302.861">
  <g id="Imperial_Seal_of_Japan" transform="translate(85.814 85.814)">
    <g id="Group_14" data-name="Group 14" transform="matrix(0.981, 0.195, -0.195, 0.981, -61.338, -124.383)">
      <g id="q" transform="translate(0 98.7)">
        <g id="s" transform="translate(98.7 38.441)">
          <g id="r" transform="translate(53.529)">
            <path id="p" d="M0,24.441,123.73,0c33.606,0,33.606,48.881,0,48.881Z" transform="translate(9.353)" fill="none" stroke="#fff" stroke-width="1"/>
            <path id="Path_1" data-name="Path 1" d="M0,24.441,123.73,0c33.606,0,33.606,48.881,0,48.881Z" transform="translate(18.706 1.86) rotate(22.5)" fill="none" stroke="#fff" stroke-width="1"/>
          </g>
          <g id="Group_7" data-name="Group 7" transform="translate(73.55 0.545) rotate(45)">
            <path id="p-2" data-name="p" d="M0,24.441,123.73,0c33.606,0,33.606,48.881,0,48.881Z" transform="translate(9.353)" fill="none" stroke="#fff" stroke-width="1"/>
            <path id="Path_2" data-name="Path 2" d="M0,24.441,123.73,0c33.606,0,33.606,48.881,0,48.881Z" transform="translate(18.706 1.86) rotate(22.5)" fill="none" stroke="#fff" stroke-width="1"/>
          </g>
        </g>
        <g id="Group_9" data-name="Group 9" transform="translate(186.022) rotate(90)">
          <g id="r-2" data-name="r" transform="translate(53.529 0)">
            <path id="p-3" data-name="p" d="M0,24.441,123.73,0c33.606,0,33.606,48.881,0,48.881Z" transform="translate(9.353)" fill="none" stroke="#fff" stroke-width="1"/>
            <path id="Path_3" data-name="Path 3" d="M0,24.441,123.73,0c33.606,0,33.606,48.881,0,48.881Z" transform="translate(18.706 1.86) rotate(22.5)" fill="none" stroke="#fff" stroke-width="1"/>
          </g>
          <g id="Group_8" data-name="Group 8" transform="translate(73.55 0.545) rotate(45)">
            <path id="p-4" data-name="p" d="M0,24.441,123.73,0c33.606,0,33.606,48.881,0,48.881Z" transform="translate(9.353 0)" fill="none" stroke="#fff" stroke-width="1"/>
            <path id="Path_4" data-name="Path 4" d="M0,24.441,123.73,0c33.606,0,33.606,48.881,0,48.881Z" transform="translate(18.706 1.86) rotate(22.5)" fill="none" stroke="#fff" stroke-width="1"/>
          </g>
        </g>
      </g>
      <g id="Group_13" data-name="Group 13" transform="translate(323.162 224.463) rotate(180)">
        <g id="s-2" data-name="s" transform="translate(98.7 38.441)">
          <g id="r-3" data-name="r" transform="translate(53.529)">
            <path id="p-5" data-name="p" d="M0,24.441,123.73,0c33.606,0,33.606,48.881,0,48.881Z" transform="translate(9.353)" fill="none" stroke="#fff" stroke-width="1"/>
            <path id="Path_5" data-name="Path 5" d="M0,24.441,123.73,0c33.606,0,33.606,48.881,0,48.881Z" transform="translate(18.706 1.86) rotate(22.5)" fill="none" stroke="#fff" stroke-width="1"/>
          </g>
          <g id="Group_10" data-name="Group 10" transform="translate(73.55 0.545) rotate(45)">
            <path id="p-6" data-name="p" d="M0,24.441,123.73,0c33.606,0,33.606,48.881,0,48.881Z" transform="translate(9.353)" fill="none" stroke="#fff" stroke-width="1"/>
            <path id="Path_6" data-name="Path 6" d="M0,24.441,123.73,0c33.606,0,33.606,48.881,0,48.881Z" transform="translate(18.706 1.86) rotate(22.5)" fill="none" stroke="#fff" stroke-width="1"/>
          </g>
        </g>
        <g id="Group_12" data-name="Group 12" transform="translate(186.022) rotate(90)">
          <g id="r-4" data-name="r" transform="translate(53.529 0)">
            <path id="p-7" data-name="p" d="M0,24.441,123.73,0c33.606,0,33.606,48.881,0,48.881Z" transform="translate(9.353)" fill="none" stroke="#fff" stroke-width="1"/>
            <path id="Path_7" data-name="Path 7" d="M0,24.441,123.73,0c33.606,0,33.606,48.881,0,48.881Z" transform="translate(18.706 1.86) rotate(22.5)" fill="none" stroke="#fff" stroke-width="1"/>
          </g>
          <g id="Group_11" data-name="Group 11" transform="translate(73.55 0.545) rotate(45)">
            <path id="p-8" data-name="p" d="M0,24.441,123.73,0c33.606,0,33.606,48.881,0,48.881Z" transform="translate(9.353 0)" fill="none" stroke="#fff" stroke-width="1"/>
            <path id="Path_8" data-name="Path 8" d="M0,24.441,123.73,0c33.606,0,33.606,48.881,0,48.881Z" transform="translate(18.706 1.86) rotate(22.5)" fill="none" stroke="#fff" stroke-width="1"/>
          </g>
        </g>
      </g>
      <circle id="Ellipse_2" data-name="Ellipse 2" cx="19.858" cy="19.858" r="19.858" transform="translate(141.723 141.723)" fill="none" stroke="#fff" stroke-width="1"/>
    </g>
    <g id="o" transform="translate(-95.964 -95.964)">
      <g id="q-2" data-name="q" transform="translate(0 98.7)">
        <g id="s-3" data-name="s" transform="translate(98.7 38.441)">
          <g id="r-5" data-name="r" transform="translate(53.529)">
            <path id="p-9" data-name="p" d="M0,8.441,123.73-16c33.606,0,33.606,48.881,0,48.881Z" transform="translate(9.353 16)" fill="none" stroke="#fff" stroke-width="1"/>
            <path id="Path_9" data-name="Path 9" d="M0,24.441,123.73,0c33.606,0,33.606,48.881,0,48.881Z" transform="translate(18.706 1.86) rotate(22.5)" fill="none" stroke="#fff" stroke-width="1"/>
          </g>
          <g id="Group_15" data-name="Group 15" transform="translate(73.55 0.545) rotate(45)">
            <path id="p-10" data-name="p" d="M0,24.441,123.73,0c33.606,0,33.606,48.881,0,48.881Z" transform="translate(9.353)" fill="none" stroke="#fff" stroke-width="1"/>
            <path id="Path_10" data-name="Path 10" d="M0,24.441,123.73,0c33.606,0,33.606,48.881,0,48.881Z" transform="translate(18.706 1.86) rotate(22.5)" fill="none" stroke="#fff" stroke-width="1"/>
          </g>
        </g>
        <g id="Group_17" data-name="Group 17" transform="translate(186.022) rotate(90)">
          <g id="r-6" data-name="r" transform="translate(53.529 0)">
            <path id="p-11" data-name="p" d="M0,24.441,123.73,0c33.606,0,33.606,48.881,0,48.881Z" transform="translate(9.353)" fill="none" stroke="#fff" stroke-width="1"/>
            <path id="Path_11" data-name="Path 11" d="M0,24.441,123.73,0c33.606,0,33.606,48.881,0,48.881Z" transform="translate(18.706 1.86) rotate(22.5)" fill="none" stroke="#fff" stroke-width="1"/>
          </g>
          <g id="Group_16" data-name="Group 16" transform="translate(73.55 0.545) rotate(45)">
            <path id="p-12" data-name="p" d="M0,24.441,123.73,0c33.606,0,33.606,48.881,0,48.881Z" transform="translate(9.353 0)" fill="none" stroke="#fff" stroke-width="1"/>
            <path id="Path_12" data-name="Path 12" d="M0,24.441,123.73,0c33.606,0,33.606,48.881,0,48.881Z" transform="translate(18.706 1.86) rotate(22.5)" fill="none" stroke="#fff" stroke-width="1"/>
          </g>
        </g>
      </g>
      <g id="Group_21" data-name="Group 21" transform="translate(323.162 224.463) rotate(180)">
        <g id="s-4" data-name="s" transform="translate(98.7 38.441)">
          <g id="r-7" data-name="r" transform="translate(53.529)">
            <path id="p-13" data-name="p" d="M0,24.441,123.73,0c33.606,0,33.606,48.881,0,48.881Z" transform="translate(9.353)" fill="none" stroke="#fff" stroke-width="1"/>
            <path id="Path_13" data-name="Path 13" d="M0,24.441,123.73,0c33.606,0,33.606,48.881,0,48.881Z" transform="translate(18.706 1.86) rotate(22.5)" fill="none" stroke="#fff" stroke-width="1"/>
          </g>
          <g id="Group_18" data-name="Group 18" transform="translate(73.55 0.545) rotate(45)">
            <path id="p-14" data-name="p" d="M0,24.441,123.73,0c33.606,0,33.606,48.881,0,48.881Z" transform="translate(9.353)" fill="none" stroke="#fff" stroke-width="1"/>
            <path id="Path_14" data-name="Path 14" d="M0,24.441,123.73,0c33.606,0,33.606,48.881,0,48.881Z" transform="translate(18.706 1.86) rotate(22.5)" fill="none" stroke="#fff" stroke-width="1"/>
          </g>
        </g>
        <g id="Group_20" data-name="Group 20" transform="translate(186.022) rotate(90)">
          <g id="r-8" data-name="r" transform="translate(53.529 0)">
            <path id="p-15" data-name="p" d="M0,24.441,123.73,0c33.606,0,33.606,48.881,0,48.881Z" transform="translate(9.353)" fill="none" stroke="#fff" stroke-width="1"/>
            <path id="Path_15" data-name="Path 15" d="M0,24.441,123.73,0c33.606,0,33.606,48.881,0,48.881Z" transform="translate(18.706 1.86) rotate(22.5)" fill="none" stroke="#fff" stroke-width="1"/>
          </g>
          <g id="Group_19" data-name="Group 19" transform="translate(73.55 0.545) rotate(45)">
            <path id="p-16" data-name="p" d="M0,24.441,123.73,0c33.606,0,33.606,48.881,0,48.881Z" transform="translate(9.353 0)" fill="none" stroke="#fff" stroke-width="1"/>
            <path id="Path_16" data-name="Path 16" d="M0,24.441,123.73,0c33.606,0,33.606,48.881,0,48.881Z" transform="translate(18.706 1.86) rotate(22.5)" fill="none" stroke="#fff" stroke-width="1"/>
          </g>
        </g>
      </g>
      <circle id="Ellipse_3" data-name="Ellipse 3" cx="19.858" cy="19.858" r="19.858" transform="translate(141.723 141.723)" fill="none" stroke="#fff" stroke-width="1"/>
    </g>
  </g>
</svg>
